<svg
        width="67"
        height="67"
        viewBox="0 0 67 67"
        fill="none"
        xmlns="http://www.w3.org/2000/svg"
      >
        <path
          d="M33.4979 62.8083C53.041 62.8083 62.8083 49.6847 62.8083 33.4958C62.8083 17.3111 53.041 4.1875 33.4958 4.1875C13.9548 4.1875 4.1875 17.3111 4.1875 33.4979C4.1875 49.6847 13.9528 62.8083 33.4979 62.8083Z"
          fill="url(#paint0_radial_129_114)"
        />
        <path
          d="M33.4979 62.8083C53.041 62.8083 62.8083 49.6847 62.8083 33.4958C62.8083 17.3111 53.041 4.1875 33.4958 4.1875C13.9548 4.1875 4.1875 17.3111 4.1875 33.4979C4.1875 49.6847 13.9528 62.8083 33.4979 62.8083Z"
          fill="url(#paint1_radial_129_114)"
        />
        <path
          d="M33.4979 62.8083C53.041 62.8083 62.8083 49.6847 62.8083 33.4958C62.8083 17.3111 53.041 4.1875 33.4958 4.1875C13.9548 4.1875 4.1875 17.3111 4.1875 33.4979C4.1875 49.6847 13.9528 62.8083 33.4979 62.8083Z"
          fill="url(#paint2_radial_129_114)"
        />
        <path
          d="M33.4979 62.8083C53.041 62.8083 62.8083 49.6847 62.8083 33.4958C62.8083 17.3111 53.041 4.1875 33.4958 4.1875C13.9548 4.1875 4.1875 17.3111 4.1875 33.4979C4.1875 49.6847 13.9528 62.8083 33.4979 62.8083Z"
          fill="url(#paint3_radial_129_114)"
          fill-opacity="0.6"
        />
        <path
          d="M33.4979 62.8083C53.041 62.8083 62.8083 49.6847 62.8083 33.4958C62.8083 17.3111 53.041 4.1875 33.4958 4.1875C13.9548 4.1875 4.1875 17.3111 4.1875 33.4979C4.1875 49.6847 13.9528 62.8083 33.4979 62.8083Z"
          fill="url(#paint4_radial_129_114)"
        />
        <path
          d="M33.4979 62.8083C53.041 62.8083 62.8083 49.6847 62.8083 33.4958C62.8083 17.3111 53.041 4.1875 33.4958 4.1875C13.9548 4.1875 4.1875 17.3111 4.1875 33.4979C4.1875 49.6847 13.9528 62.8083 33.4979 62.8083Z"
          fill="url(#paint5_radial_129_114)"
        />
        <path
          d="M33.4979 62.8083C53.041 62.8083 62.8083 49.6847 62.8083 33.4958C62.8083 17.3111 53.041 4.1875 33.4958 4.1875C13.9548 4.1875 4.1875 17.3111 4.1875 33.4979C4.1875 49.6847 13.9528 62.8083 33.4979 62.8083Z"
          fill="url(#paint6_radial_129_114)"
        />
        <path
          d="M33.4979 62.8083C53.041 62.8083 62.8083 49.6847 62.8083 33.4958C62.8083 17.3111 53.041 4.1875 33.4958 4.1875C13.9548 4.1875 4.1875 17.3111 4.1875 33.4979C4.1875 49.6847 13.9528 62.8083 33.4979 62.8083Z"
          fill="url(#paint7_radial_129_114)"
        />
        <path
          d="M18.8793 37.8843C24.2829 37.8843 28.6634 33.5039 28.6634 28.1003C28.6634 22.6966 24.2829 18.3162 18.8793 18.3162C13.4757 18.3162 9.09525 22.6966 9.09525 28.1003C9.09525 33.5039 13.4757 37.8843 18.8793 37.8843Z"
          fill="url(#paint8_radial_129_114)"
        />
        <path
          d="M40.2921 38.0791C45.1997 38.0791 49.178 34.1008 49.178 29.1932C49.178 24.2857 45.1997 20.3074 40.2921 20.3074C35.3846 20.3074 31.4062 24.2857 31.4062 29.1932C31.4062 34.1008 35.3846 38.0791 40.2921 38.0791Z"
          fill="url(#paint9_radial_129_114)"
        />
        <path
          d="M21.8169 33.9691C22.9846 33.9871 24.1443 33.7726 25.2284 33.3382C26.3124 32.9038 27.2993 32.2581 28.1315 31.4386C28.9636 30.6192 29.6245 29.6424 30.0756 28.5652C30.5267 27.4879 30.759 26.3317 30.759 25.1638C30.759 23.9959 30.5267 22.8397 30.0756 21.7624C29.6245 20.6852 28.9636 19.7084 28.1315 18.889C27.2993 18.0695 26.3124 17.4238 25.2284 16.9894C24.1443 16.555 22.9846 16.3405 21.8169 16.3585C19.5051 16.3942 17.3 17.3376 15.6778 18.985C14.0556 20.6324 13.1463 22.8517 13.1463 25.1638C13.1463 27.4759 14.0556 29.6952 15.6778 31.3426C17.3 32.99 19.5051 33.9334 21.8169 33.9691ZM45.158 34.1303C47.5149 34.1303 49.7754 33.194 51.442 31.5274C53.1086 29.8607 54.0449 27.6003 54.0449 25.2434C54.0449 22.8864 53.1086 20.626 51.442 18.9594C49.7754 17.2927 47.5149 16.3564 45.158 16.3564C42.8008 16.3564 40.5401 17.2929 38.8732 18.9597C37.2064 20.6265 36.27 22.8872 36.27 25.2444C36.27 27.6017 37.2064 29.8623 38.8732 31.5292C40.5401 33.196 42.8008 34.1303 45.158 34.1303Z"
          fill="white"
        />
        <path
          d="M23.0312 31.4062C24.6971 31.4062 26.2948 30.7445 27.4728 29.5665C28.6507 28.3886 29.3125 26.7909 29.3125 25.125C29.3125 23.4591 28.6507 21.8614 27.4728 20.6835C26.2948 19.5055 24.6971 18.8438 23.0312 18.8438C21.3654 18.8438 19.7677 19.5055 18.5897 20.6835C17.4118 21.8614 16.75 23.4591 16.75 25.125C16.75 26.7909 17.4118 28.3886 18.5897 29.5665C19.7677 30.7445 21.3654 31.4062 23.0312 31.4062Z"
          fill="url(#paint10_linear_129_114)"
        />
        <path
          d="M43.9688 31.4062C45.6346 31.4062 47.2323 30.7445 48.4103 29.5665C49.5882 28.3886 50.25 26.7909 50.25 25.125C50.25 23.4591 49.5882 21.8614 48.4103 20.6835C47.2323 19.5055 45.6346 18.8438 43.9688 18.8438C42.3029 18.8438 40.7052 19.5055 39.5272 20.6835C38.3493 21.8614 37.6875 23.4591 37.6875 25.125C37.6875 26.7909 38.3493 28.3886 39.5272 29.5665C40.7052 30.7445 42.3029 31.4062 43.9688 31.4062Z"
          fill="url(#paint11_linear_129_114)"
        />
        <path
          fill-rule="evenodd"
          clip-rule="evenodd"
          d="M21.775 38.1063C21.995 37.9413 22.2453 37.8212 22.5116 37.753C22.778 37.6848 23.0552 37.6697 23.3274 37.7085C23.5996 37.7474 23.8614 37.8395 24.098 37.9796C24.3346 38.1197 24.5413 38.305 24.7063 38.525C25.3553 39.3897 28.2908 41.875 33.5 41.875C38.7093 41.875 41.6447 39.3897 42.2938 38.525C42.4587 38.305 42.6654 38.1197 42.902 37.9796C43.1386 37.8395 43.4005 37.7474 43.6727 37.7085C43.9448 37.6697 44.222 37.6848 44.4884 37.753C44.7547 37.8212 45.005 37.9413 45.225 38.1063C45.445 38.2712 45.6303 38.4779 45.7704 38.7145C45.9105 38.9511 46.0026 39.213 46.0415 39.4851C46.0803 39.7573 46.0652 40.0345 45.997 40.3009C45.9288 40.5672 45.8087 40.8175 45.6438 41.0375C44.1991 42.9638 40.0158 46.0625 33.5 46.0625C26.9843 46.0625 22.8009 42.9638 21.3563 41.0375C21.0231 40.5933 20.88 40.0349 20.9586 39.4851C21.0371 38.9354 21.3308 38.4394 21.775 38.1063Z"
          fill="url(#paint12_radial_129_114)"
        />
        <defs>
          <radialGradient
            id="paint0_radial_129_114"
            cx="0"
            cy="0"
            r="1"
            gradientUnits="userSpaceOnUse"
            gradientTransform="translate(53.391 18.8429) rotate(132.839) scale(78.5226)"
          >
            <stop stop-color="#FFF478" />
            <stop offset="0.475" stop-color="#FFB02E" />
            <stop offset="1" stop-color="#F70A8D" />
          </radialGradient>
          <radialGradient
            id="paint1_radial_129_114"
            cx="0"
            cy="0"
            r="1"
            gradientUnits="userSpaceOnUse"
            gradientTransform="translate(53.3882 18.8451) rotate(131.878) scale(81.5489)"
          >
            <stop stop-color="#FFF478" />
            <stop offset="0.475" stop-color="#FFB02E" />
            <stop offset="1" stop-color="#F70A8D" />
          </radialGradient>
          <radialGradient
            id="paint2_radial_129_114"
            cx="0"
            cy="0"
            r="1"
            gradientUnits="userSpaceOnUse"
            gradientTransform="translate(33.4986 26.1713) rotate(101.31) scale(37.3663 47.8592)"
          >
            <stop offset="0.788" stop-color="#F59639" stop-opacity="0" />
            <stop offset="0.973" stop-color="#FF7DCE" />
          </radialGradient>
          <radialGradient
            id="paint3_radial_129_114"
            cx="0"
            cy="0"
            r="1"
            gradientUnits="userSpaceOnUse"
            gradientTransform="translate(37.6875 29.3125) rotate(135) scale(85.8693)"
          >
            <stop offset="0.315" stop-opacity="0" />
            <stop offset="1" />
          </radialGradient>
          <radialGradient
            id="paint4_radial_129_114"
            cx="0"
            cy="0"
            r="1"
            gradientUnits="userSpaceOnUse"
            gradientTransform="translate(33.4999 35.5953) rotate(77.692) scale(58.9326)"
          >
            <stop offset="0.508" stop-color="#7D6133" stop-opacity="0" />
            <stop offset="1" stop-color="#715B32" />
          </radialGradient>
          <radialGradient
            id="paint5_radial_129_114"
            cx="0"
            cy="0"
            r="1"
            gradientUnits="userSpaceOnUse"
            gradientTransform="translate(34.5469 34.5469) rotate(55.713) scale(27.8751 20.2054)"
          >
            <stop stop-color="#FFB849" />
            <stop offset="1" stop-color="#FFB847" stop-opacity="0" />
          </radialGradient>
          <radialGradient
            id="paint6_radial_129_114"
            cx="0"
            cy="0"
            r="1"
            gradientUnits="userSpaceOnUse"
            gradientTransform="translate(42.9219 37.6875) rotate(9.86582) scale(24.4395)"
          >
            <stop stop-color="#FFA64B" />
            <stop offset="0.9" stop-color="#FFAE46" stop-opacity="0" />
          </radialGradient>
          <radialGradient
            id="paint7_radial_129_114"
            cx="0"
            cy="0"
            r="1"
            gradientUnits="userSpaceOnUse"
            gradientTransform="translate(36.6407 31.4068) rotate(43.971) scale(123.642)"
          >
            <stop offset="0.185" stop-opacity="0" />
            <stop offset="1" stop-opacity="0.4" />
          </radialGradient>
          <radialGradient
            id="paint8_radial_129_114"
            cx="0"
            cy="0"
            r="1"
            gradientUnits="userSpaceOnUse"
            gradientTransform="translate(26.4923 20.4872) rotate(135) scale(19.0652 9.86753)"
          >
            <stop stop-color="#392108" />
            <stop offset="1" stop-color="#C87928" stop-opacity="0" />
          </radialGradient>
          <radialGradient
            id="paint9_radial_129_114"
            cx="0"
            cy="0"
            r="1"
            gradientUnits="userSpaceOnUse"
            gradientTransform="translate(47.2052 22.2802) rotate(135) scale(16.0584 9.06523)"
          >
            <stop stop-color="#392108" />
            <stop offset="1" stop-color="#C87928" stop-opacity="0" />
          </radialGradient>
          <linearGradient
            id="paint10_linear_129_114"
            x1="34.5469"
            y1="16.75"
            x2="32.4531"
            y2="31.4063"
            gradientUnits="userSpaceOnUse"
          >
            <stop stop-color="#553B3E" />
            <stop offset="1" stop-color="#3D2432" />
          </linearGradient>
          <linearGradient
            id="paint11_linear_129_114"
            x1="34.5469"
            y1="16.75"
            x2="32.4531"
            y2="31.4063"
            gradientUnits="userSpaceOnUse"
          >
            <stop stop-color="#553B3E" />
            <stop offset="1" stop-color="#3D2432" />
          </linearGradient>
          <radialGradient
            id="paint12_radial_129_114"
            cx="0"
            cy="0"
            r="1"
            gradientUnits="userSpaceOnUse"
            gradientTransform="translate(33.5 35.5938) rotate(90) scale(11.5156 17.6263)"
          >
            <stop offset="0.348" stop-color="#241A1A" />
            <stop offset="0.628" stop-color="#57444A" />
            <stop offset="1" stop-color="#502A56" />
          </radialGradient>
        </defs>
      </svg>