      <svg viewBox="0 0 67 67" fill="none" xmlns="http://www.w3.org/2000/svg">
        <g clip-path="url(#clip0_129_11)">
          <mask
            id="mask0_129_11"
            style="mask-type: luminance"
            maskUnits="userSpaceOnUse"
            x="0"
            y="0"
            width="67"
            height="67"
          >
            <path d="M0 0H67V67H0V0Z" fill="white" />
          </mask>
          <g mask="url(#mask0_129_11)">
            <path
              d="M33.4979 62.8083C53.041 62.8083 62.8083 49.6847 62.8083 33.4958C62.8083 17.3111 53.041 4.1875 33.4958 4.1875C13.9548 4.1875 4.1875 17.3111 4.1875 33.4979C4.1875 49.6847 13.9528 62.8083 33.4979 62.8083Z"
              fill="url(#paint0_radial_129_11)"
            />
            <path
              d="M33.4979 62.8083C53.041 62.8083 62.8083 49.6847 62.8083 33.4958C62.8083 17.3111 53.041 4.1875 33.4958 4.1875C13.9548 4.1875 4.1875 17.3111 4.1875 33.4979C4.1875 49.6847 13.9528 62.8083 33.4979 62.8083Z"
              fill="url(#paint1_radial_129_11)"
            />
            <path
              d="M33.4979 62.8083C53.041 62.8083 62.8083 49.6847 62.8083 33.4958C62.8083 17.3111 53.041 4.1875 33.4958 4.1875C13.9548 4.1875 4.1875 17.3111 4.1875 33.4979C4.1875 49.6847 13.9528 62.8083 33.4979 62.8083Z"
              fill="url(#paint2_radial_129_11)"
            />
            <path
              d="M33.4979 62.8083C53.041 62.8083 62.8083 49.6847 62.8083 33.4958C62.8083 17.3111 53.041 4.1875 33.4958 4.1875C13.9548 4.1875 4.1875 17.3111 4.1875 33.4979C4.1875 49.6847 13.9528 62.8083 33.4979 62.8083Z"
              fill="url(#paint3_radial_129_11)"
              fill-opacity="0.6"
            />
            <path
              d="M33.4979 62.8083C53.041 62.8083 62.8083 49.6847 62.8083 33.4958C62.8083 17.3111 53.041 4.1875 33.4958 4.1875C13.9548 4.1875 4.1875 17.3111 4.1875 33.4979C4.1875 49.6847 13.9528 62.8083 33.4979 62.8083Z"
              fill="url(#paint4_radial_129_11)"
            />
            <path
              d="M33.4979 62.8083C53.041 62.8083 62.8083 49.6847 62.8083 33.4958C62.8083 17.3111 53.041 4.1875 33.4958 4.1875C13.9548 4.1875 4.1875 17.3111 4.1875 33.4979C4.1875 49.6847 13.9528 62.8083 33.4979 62.8083Z"
              fill="url(#paint5_radial_129_11)"
            />
            <path
              d="M33.4979 62.8083C53.041 62.8083 62.8083 49.6847 62.8083 33.4958C62.8083 17.3111 53.041 4.1875 33.4958 4.1875C13.9548 4.1875 4.1875 17.3111 4.1875 33.4979C4.1875 49.6847 13.9528 62.8083 33.4979 62.8083Z"
              fill="url(#paint6_radial_129_11)"
            />
            <path
              d="M33.4979 62.8083C53.041 62.8083 62.8083 49.6847 62.8083 33.4958C62.8083 17.3111 53.041 4.1875 33.4958 4.1875C13.9548 4.1875 4.1875 17.3111 4.1875 33.4979C4.1875 49.6847 13.9528 62.8083 33.4979 62.8083Z"
              fill="url(#paint7_radial_129_11)"
            />
            <path
              d="M18.8438 43.9688C24.6255 43.9688 29.3125 39.2817 29.3125 33.5C29.3125 27.7183 24.6255 23.0312 18.8438 23.0312C13.062 23.0312 8.375 27.7183 8.375 33.5C8.375 39.2817 13.062 43.9688 18.8438 43.9688Z"
              fill="url(#paint8_radial_129_11)"
            />
            <path
              d="M40.8281 43.9688C46.0317 43.9688 50.25 39.7504 50.25 34.5469C50.25 29.3433 46.0317 25.125 40.8281 25.125C35.6246 25.125 31.4062 29.3433 31.4062 34.5469C31.4062 39.7504 35.6246 43.9688 40.8281 43.9688Z"
              fill="url(#paint9_radial_129_11)"
            />
            <path
              d="M21.9844 39.7812C24.4832 39.7812 26.8797 38.7886 28.6466 37.0216C30.4136 35.2547 31.4062 32.8582 31.4062 30.3594C31.4062 27.8605 30.4136 25.464 28.6466 23.6971C26.8797 21.9302 24.4832 20.9375 21.9844 20.9375C19.4855 20.9375 17.089 21.9302 15.3221 23.6971C13.5552 25.464 12.5625 27.8605 12.5625 30.3594C12.5625 32.8582 13.5552 35.2547 15.3221 37.0216C17.089 38.7886 19.4855 39.7812 21.9844 39.7812ZM45.0156 39.7812C47.5145 39.7812 49.911 38.7886 51.6779 37.0216C53.4448 35.2547 54.4375 32.8582 54.4375 30.3594C54.4375 27.8605 53.4448 25.464 51.6779 23.6971C49.911 21.9302 47.5145 20.9375 45.0156 20.9375C42.5168 20.9375 40.1203 21.9302 38.3534 23.6971C36.5864 25.464 35.5938 27.8605 35.5938 30.3594C35.5938 32.8582 36.5864 35.2547 38.3534 37.0216C40.1203 38.7886 42.5168 39.7812 45.0156 39.7812Z"
              fill="white"
            />
            <path
              d="M25.125 35.5938C26.2356 35.5938 27.3007 35.1526 28.086 34.3673C28.8713 33.582 29.3125 32.5168 29.3125 31.4062C29.3125 30.2957 28.8713 29.2305 28.086 28.4452C27.3007 27.6599 26.2356 27.2188 25.125 27.2188C24.0144 27.2188 22.9493 27.6599 22.164 28.4452C21.3787 29.2305 20.9375 30.2957 20.9375 31.4062C20.9375 32.5168 21.3787 33.582 22.164 34.3673C22.9493 35.1526 24.0144 35.5938 25.125 35.5938Z"
              fill="url(#paint10_linear_129_11)"
            />
            <path
              d="M41.875 35.5938C42.9856 35.5938 44.0507 35.1526 44.836 34.3673C45.6213 33.582 46.0625 32.5168 46.0625 31.4062C46.0625 30.2957 45.6213 29.2305 44.836 28.4452C44.0507 27.6599 42.9856 27.2188 41.875 27.2188C40.7644 27.2188 39.6993 27.6599 38.914 28.4452C38.1287 29.2305 37.6875 30.2957 37.6875 31.4062C37.6875 32.5168 38.1287 33.582 38.914 34.3673C39.6993 35.1526 40.7644 35.5938 41.875 35.5938Z"
              fill="url(#paint11_linear_129_11)"
            />
            <path
              d="M13.6094 19.8906C14.3066 17.7969 16.9594 13.6094 21.9844 13.6094"
              stroke="url(#paint12_linear_129_11)"
              stroke-linecap="round"
              stroke-linejoin="round"
            />
            <path
              d="M53.3906 19.8906C52.6934 17.7969 50.0406 13.6094 45.0156 13.6094"
              stroke="url(#paint13_linear_129_11)"
              stroke-linecap="round"
              stroke-linejoin="round"
            />
            <path
              d="M45.6752 53.422C46.1023 55.1033 44.6555 56.5313 42.9219 56.5313H24.0781C22.3445 56.5313 20.8956 55.1033 21.3248 53.422C22.0177 50.7192 23.5902 48.3237 25.7945 46.6132C27.9989 44.9026 30.7098 43.9741 33.5 43.9741C36.2902 43.9741 39.0011 44.9026 41.2055 46.6132C43.4098 48.3237 44.9823 50.7192 45.6752 53.422Z"
              fill="url(#paint14_radial_129_11)"
            />
          </g>
        </g>
        <defs>
          <radialGradient
            id="paint0_radial_129_11"
            cx="0"
            cy="0"
            r="1"
            gradientUnits="userSpaceOnUse"
            gradientTransform="translate(53.391 18.8429) rotate(132.839) scale(78.5226)"
          >
            <stop stop-color="#FFF478" />
            <stop offset="0.475" stop-color="#FFB02E" />
            <stop offset="1" stop-color="#F70A8D" />
          </radialGradient>
          <radialGradient
            id="paint1_radial_129_11"
            cx="0"
            cy="0"
            r="1"
            gradientUnits="userSpaceOnUse"
            gradientTransform="translate(53.3882 18.8451) rotate(131.878) scale(81.5489)"
          >
            <stop stop-color="#FFF478" />
            <stop offset="0.475" stop-color="#FFB02E" />
            <stop offset="1" stop-color="#F70A8D" />
          </radialGradient>
          <radialGradient
            id="paint2_radial_129_11"
            cx="0"
            cy="0"
            r="1"
            gradientUnits="userSpaceOnUse"
            gradientTransform="translate(33.4986 26.1713) rotate(101.31) scale(37.3663 47.8592)"
          >
            <stop offset="0.788" stop-color="#F59639" stop-opacity="0" />
            <stop offset="0.973" stop-color="#FF7DCE" />
          </radialGradient>
          <radialGradient
            id="paint3_radial_129_11"
            cx="0"
            cy="0"
            r="1"
            gradientUnits="userSpaceOnUse"
            gradientTransform="translate(37.6875 29.3125) rotate(135) scale(85.8693)"
          >
            <stop offset="0.315" stop-opacity="0" />
            <stop offset="1" />
          </radialGradient>
          <radialGradient
            id="paint4_radial_129_11"
            cx="0"
            cy="0"
            r="1"
            gradientUnits="userSpaceOnUse"
            gradientTransform="translate(33.4999 35.5953) rotate(77.692) scale(58.9326)"
          >
            <stop offset="0.508" stop-color="#7D6133" stop-opacity="0" />
            <stop offset="1" stop-color="#715B32" />
          </radialGradient>
          <radialGradient
            id="paint5_radial_129_11"
            cx="0"
            cy="0"
            r="1"
            gradientUnits="userSpaceOnUse"
            gradientTransform="translate(34.5469 34.5469) rotate(55.713) scale(27.8751 20.2054)"
          >
            <stop stop-color="#FFB849" />
            <stop offset="1" stop-color="#FFB847" stop-opacity="0" />
          </radialGradient>
          <radialGradient
            id="paint6_radial_129_11"
            cx="0"
            cy="0"
            r="1"
            gradientUnits="userSpaceOnUse"
            gradientTransform="translate(42.9219 37.6875) rotate(9.86582) scale(24.4395)"
          >
            <stop stop-color="#FFA64B" />
            <stop offset="0.9" stop-color="#FFAE46" stop-opacity="0" />
          </radialGradient>
          <radialGradient
            id="paint7_radial_129_11"
            cx="0"
            cy="0"
            r="1"
            gradientUnits="userSpaceOnUse"
            gradientTransform="translate(36.6407 31.4068) rotate(43.971) scale(123.642)"
          >
            <stop offset="0.185" stop-opacity="0" />
            <stop offset="1" stop-opacity="0.4" />
          </radialGradient>
          <radialGradient
            id="paint8_radial_129_11"
            cx="0"
            cy="0"
            r="1"
            gradientUnits="userSpaceOnUse"
            gradientTransform="translate(26.9857 25.3581) rotate(135) scale(20.3981 10.5574)"
          >
            <stop stop-color="#392108" />
            <stop offset="1" stop-color="#C87928" stop-opacity="0" />
          </radialGradient>
          <radialGradient
            id="paint9_radial_129_11"
            cx="0"
            cy="0"
            r="1"
            gradientUnits="userSpaceOnUse"
            gradientTransform="translate(48.1562 27.2188) rotate(135) scale(17.0258 9.61135)"
          >
            <stop stop-color="#392108" />
            <stop offset="1" stop-color="#C87928" stop-opacity="0" />
          </radialGradient>
          <linearGradient
            id="paint10_linear_129_11"
            x1="43.1627"
            y1="27.2187"
            x2="41.7222"
            y2="35.6566"
            gradientUnits="userSpaceOnUse"
          >
            <stop stop-color="#553B3E" />
            <stop offset="1" stop-color="#3D2432" />
          </linearGradient>
          <linearGradient
            id="paint11_linear_129_11"
            x1="43.1627"
            y1="27.2187"
            x2="41.7222"
            y2="35.6566"
            gradientUnits="userSpaceOnUse"
          >
            <stop stop-color="#553B3E" />
            <stop offset="1" stop-color="#3D2432" />
          </linearGradient>
          <linearGradient
            id="paint12_linear_129_11"
            x1="14.3066"
            y1="21.775"
            x2="14.3066"
            y2="18.0063"
            gradientUnits="userSpaceOnUse"
          >
            <stop offset="0.03" stop-color="#524049" />
            <stop offset="1" stop-color="#4A2C42" />
          </linearGradient>
          <linearGradient
            id="paint13_linear_129_11"
            x1="52.6934"
            y1="21.775"
            x2="52.6934"
            y2="18.0063"
            gradientUnits="userSpaceOnUse"
          >
            <stop offset="0.03" stop-color="#524049" />
            <stop offset="1" stop-color="#4A2C42" />
          </linearGradient>
          <radialGradient
            id="paint14_radial_129_11"
            cx="0"
            cy="0"
            r="1"
            gradientUnits="userSpaceOnUse"
            gradientTransform="translate(33.5 57.5781) rotate(-90) scale(15.7031 31.4062)"
          >
            <stop stop-color="#F70A8D" />
            <stop offset="1" stop-color="#89029C" />
          </radialGradient>
          <clipPath id="clip0_129_11">
            <rect width="67" height="67" fill="white" />
          </clipPath>
        </defs>
      </svg>