 <svg
        width="67"
        height="67"
        viewBox="0 0 67 67"
        fill="none"
        xmlns="http://www.w3.org/2000/svg"
      >
        <path
          d="M33.4979 62.8083C53.041 62.8083 62.8083 49.6847 62.8083 33.4958C62.8083 17.3111 53.041 4.1875 33.4958 4.1875C13.9548 4.1875 4.1875 17.3111 4.1875 33.4979C4.1875 49.6847 13.9528 62.8083 33.4979 62.8083Z"
          fill="url(#paint0_radial_129_130)"
        />
        <path
          d="M33.4979 62.8083C53.041 62.8083 62.8083 49.6847 62.8083 33.4958C62.8083 17.3111 53.041 4.1875 33.4958 4.1875C13.9548 4.1875 4.1875 17.3111 4.1875 33.4979C4.1875 49.6847 13.9528 62.8083 33.4979 62.8083Z"
          fill="url(#paint1_radial_129_130)"
        />
        <path
          d="M33.4979 62.8083C53.041 62.8083 62.8083 49.6847 62.8083 33.4958C62.8083 17.3111 53.041 4.1875 33.4958 4.1875C13.9548 4.1875 4.1875 17.3111 4.1875 33.4979C4.1875 49.6847 13.9528 62.8083 33.4979 62.8083Z"
          fill="url(#paint2_radial_129_130)"
        />
        <path
          d="M33.4979 62.8083C53.041 62.8083 62.8083 49.6847 62.8083 33.4958C62.8083 17.3111 53.041 4.1875 33.4958 4.1875C13.9548 4.1875 4.1875 17.3111 4.1875 33.4979C4.1875 49.6847 13.9528 62.8083 33.4979 62.8083Z"
          fill="url(#paint3_radial_129_130)"
          fill-opacity="0.6"
        />
        <path
          d="M33.4979 62.8083C53.041 62.8083 62.8083 49.6847 62.8083 33.4958C62.8083 17.3111 53.041 4.1875 33.4958 4.1875C13.9548 4.1875 4.1875 17.3111 4.1875 33.4979C4.1875 49.6847 13.9528 62.8083 33.4979 62.8083Z"
          fill="url(#paint4_radial_129_130)"
        />
        <path
          d="M33.4979 62.8083C53.041 62.8083 62.8083 49.6847 62.8083 33.4958C62.8083 17.3111 53.041 4.1875 33.4958 4.1875C13.9548 4.1875 4.1875 17.3111 4.1875 33.4979C4.1875 49.6847 13.9528 62.8083 33.4979 62.8083Z"
          fill="url(#paint5_radial_129_130)"
        />
        <path
          d="M33.4979 62.8083C53.041 62.8083 62.8083 49.6847 62.8083 33.4958C62.8083 17.3111 53.041 4.1875 33.4958 4.1875C13.9548 4.1875 4.1875 17.3111 4.1875 33.4979C4.1875 49.6847 13.9528 62.8083 33.4979 62.8083Z"
          fill="url(#paint6_radial_129_130)"
        />
        <path
          d="M33.4979 62.8083C53.041 62.8083 62.8083 49.6847 62.8083 33.4958C62.8083 17.3111 53.041 4.1875 33.4958 4.1875C13.9548 4.1875 4.1875 17.3111 4.1875 33.4979C4.1875 49.6847 13.9528 62.8083 33.4979 62.8083Z"
          fill="url(#paint7_radial_129_130)"
        />
        <path
          d="M33.5 52.3438C14.6562 52.3438 14.6562 33.5 14.6562 33.5H52.3438C52.3438 33.5 52.3438 52.3438 33.5 52.3438Z"
          fill="url(#paint8_radial_129_130)"
        />
        <path
          d="M16.75 34.5469V33.5H50.25V34.5469C50.25 35.1022 50.0294 35.6347 49.6368 36.0274C49.2441 36.42 48.7115 36.6406 48.1562 36.6406H18.8438C18.2885 36.6406 17.7559 36.42 17.3632 36.0274C16.9706 35.6347 16.75 35.1022 16.75 34.5469Z"
          fill="url(#paint9_linear_129_130)"
        />
        <path
          d="M21.9844 32.4531C21.9844 32.4531 15.7031 31.4062 11.4109 26.4524C7.035 21.4022 11.1199 14.1683 18.8437 17.7968C22.1456 12.4117 30.3384 14.4049 29.2497 20.9374C28.2028 27.2187 21.9844 32.4531 21.9844 32.4531Z"
          fill="url(#paint10_radial_129_130)"
        />
        <path
          d="M40.8637 32.4531C40.8637 32.4531 47.145 31.4062 51.4372 26.4524C55.8131 21.4022 51.7303 14.1683 44.0044 17.7968C40.7025 12.4117 32.5097 14.4049 33.5984 20.9374C34.6453 27.2187 40.8637 32.4531 40.8637 32.4531Z"
          fill="url(#paint11_radial_129_130)"
        />
        <path
          d="M22.1791 29.8777C19.989 29.1868 16.2999 27.6207 13.4754 24.3586C9.09945 19.3085 13.1844 12.0746 20.9082 15.7031C24.21 10.3179 32.4029 12.3112 31.3141 18.8437C30.5834 23.2196 27.3465 27.0868 25.4475 29.0319C25.0357 29.4636 24.5115 29.7715 23.9339 29.921C23.3564 30.0705 22.7486 30.0555 22.1791 29.8777Z"
          fill="url(#paint12_linear_129_130)"
        />
        <path
          d="M44.8272 29.8777C47.0173 29.1868 50.7065 27.6207 53.5309 24.3586C57.9069 19.3085 53.824 12.0746 46.0981 15.7031C42.7963 10.3179 34.6034 12.3112 35.6922 18.8437C36.4229 23.2196 39.6598 27.0868 41.5589 29.0319C42.4173 29.9092 43.6589 30.2462 44.8272 29.8777Z"
          fill="url(#paint13_linear_129_130)"
        />
        <path
          d="M24.1912 23.9357C25.4177 22.7092 24.4235 19.7264 21.9705 17.2734C19.5175 14.8205 16.5347 13.8262 15.3082 15.0527C14.0817 16.2792 15.076 19.262 17.529 21.715C19.982 24.1679 22.9648 25.1622 24.1912 23.9357Z"
          fill="url(#paint14_radial_129_130)"
        />
        <path
          d="M45.2086 25.3798C47.4623 24.8609 48.6583 21.6997 47.88 18.3191C47.1016 14.9385 44.6436 12.6187 42.3899 13.1376C40.1361 13.6565 38.9401 16.8177 39.7185 20.1982C40.4968 23.5788 42.9548 25.8987 45.2086 25.3798Z"
          fill="url(#paint15_radial_129_130)"
        />
        <path
          d="M25.1613 18.1835C26.3878 19.41 28.3763 19.41 29.6028 18.1835C30.8293 16.957 30.8293 14.9685 29.6028 13.742C28.3763 12.5155 26.3878 12.5155 25.1613 13.742C23.9348 14.9685 23.9348 16.957 25.1613 18.1835Z"
          fill="url(#paint16_radial_129_130)"
        />
        <path
          d="M48.0657 21.0175C48.8834 21.8352 50.8719 21.1723 52.5073 19.537C54.1426 17.9017 54.8054 15.9132 53.9878 15.0955C53.1701 14.2778 51.1816 14.9407 49.5463 16.576C47.9109 18.2113 47.2481 20.1999 48.0657 21.0175Z"
          fill="url(#paint17_radial_129_130)"
        />
        <defs>
          <radialGradient
            id="paint0_radial_129_130"
            cx="0"
            cy="0"
            r="1"
            gradientUnits="userSpaceOnUse"
            gradientTransform="translate(53.391 18.8429) rotate(132.839) scale(78.5226)"
          >
            <stop stop-color="#FFF478" />
            <stop offset="0.475" stop-color="#FFB02E" />
            <stop offset="1" stop-color="#F70A8D" />
          </radialGradient>
          <radialGradient
            id="paint1_radial_129_130"
            cx="0"
            cy="0"
            r="1"
            gradientUnits="userSpaceOnUse"
            gradientTransform="translate(53.3882 18.8451) rotate(131.878) scale(81.5489)"
          >
            <stop stop-color="#FFF478" />
            <stop offset="0.475" stop-color="#FFB02E" />
            <stop offset="1" stop-color="#F70A8D" />
          </radialGradient>
          <radialGradient
            id="paint2_radial_129_130"
            cx="0"
            cy="0"
            r="1"
            gradientUnits="userSpaceOnUse"
            gradientTransform="translate(33.4986 26.1713) rotate(101.31) scale(37.3663 47.8592)"
          >
            <stop offset="0.788" stop-color="#F59639" stop-opacity="0" />
            <stop offset="0.973" stop-color="#FF7DCE" />
          </radialGradient>
          <radialGradient
            id="paint3_radial_129_130"
            cx="0"
            cy="0"
            r="1"
            gradientUnits="userSpaceOnUse"
            gradientTransform="translate(37.6875 29.3125) rotate(135) scale(85.8693)"
          >
            <stop offset="0.315" stop-opacity="0" />
            <stop offset="1" />
          </radialGradient>
          <radialGradient
            id="paint4_radial_129_130"
            cx="0"
            cy="0"
            r="1"
            gradientUnits="userSpaceOnUse"
            gradientTransform="translate(33.4999 35.5953) rotate(77.692) scale(58.9326)"
          >
            <stop offset="0.508" stop-color="#7D6133" stop-opacity="0" />
            <stop offset="1" stop-color="#715B32" />
          </radialGradient>
          <radialGradient
            id="paint5_radial_129_130"
            cx="0"
            cy="0"
            r="1"
            gradientUnits="userSpaceOnUse"
            gradientTransform="translate(34.5469 34.5469) rotate(55.713) scale(27.8751 20.2054)"
          >
            <stop stop-color="#FFB849" />
            <stop offset="1" stop-color="#FFB847" stop-opacity="0" />
          </radialGradient>
          <radialGradient
            id="paint6_radial_129_130"
            cx="0"
            cy="0"
            r="1"
            gradientUnits="userSpaceOnUse"
            gradientTransform="translate(42.9219 37.6875) rotate(9.86582) scale(24.4395)"
          >
            <stop stop-color="#FFA64B" />
            <stop offset="0.9" stop-color="#FFAE46" stop-opacity="0" />
          </radialGradient>
          <radialGradient
            id="paint7_radial_129_130"
            cx="0"
            cy="0"
            r="1"
            gradientUnits="userSpaceOnUse"
            gradientTransform="translate(36.6407 31.4068) rotate(43.971) scale(123.642)"
          >
            <stop offset="0.185" stop-opacity="0" />
            <stop offset="1" stop-opacity="0.4" />
          </radialGradient>
          <radialGradient
            id="paint8_radial_129_130"
            cx="0"
            cy="0"
            r="1"
            gradientUnits="userSpaceOnUse"
            gradientTransform="translate(33.5 56.5313) rotate(-90) scale(23.0313 46.0625)"
          >
            <stop stop-color="#F70A8D" />
            <stop offset="1" stop-color="#89029C" />
          </radialGradient>
          <linearGradient
            id="paint9_linear_129_130"
            x1="33.5"
            y1="33.5"
            x2="33.5"
            y2="36.6406"
            gradientUnits="userSpaceOnUse"
          >
            <stop stop-color="#ECCDFF" />
            <stop offset="1" stop-color="white" />
          </linearGradient>
          <radialGradient
            id="paint10_radial_129_130"
            cx="0"
            cy="0"
            r="1"
            gradientUnits="userSpaceOnUse"
            gradientTransform="translate(29.3125 29.3124) rotate(-155.376) scale(27.6383 11.4883)"
          >
            <stop stop-color="#CC7521" />
            <stop offset="1" stop-color="#E6872B" stop-opacity="0" />
          </radialGradient>
          <radialGradient
            id="paint11_radial_129_130"
            cx="0"
            cy="0"
            r="1"
            gradientUnits="userSpaceOnUse"
            gradientTransform="translate(41.8771 23.032) rotate(122.005) scale(9.8762 9.8762)"
          >
            <stop stop-color="#EC812A" />
            <stop offset="1" stop-color="#FBA84C" stop-opacity="0" />
          </radialGradient>
          <linearGradient
            id="paint12_linear_129_130"
            x1="27.1895"
            y1="14.6562"
            x2="20.9082"
            y2="29.3124"
            gradientUnits="userSpaceOnUse"
          >
            <stop stop-color="#CA0B4A" />
            <stop offset="1" stop-color="#F70A8D" />
          </linearGradient>
          <linearGradient
            id="paint13_linear_129_130"
            x1="50.25"
            y1="14.6562"
            x2="39.7813"
            y2="31.4062"
            gradientUnits="userSpaceOnUse"
          >
            <stop stop-color="#CA0B4A" />
            <stop offset="1" stop-color="#F70A8D" />
          </linearGradient>
          <radialGradient
            id="paint14_radial_129_130"
            cx="0"
            cy="0"
            r="1"
            gradientUnits="userSpaceOnUse"
            gradientTransform="translate(19.7483 19.4927) rotate(45) scale(6.49372 3.30059)"
          >
            <stop stop-color="#EC6686" />
            <stop offset="1" stop-color="#EC6686" stop-opacity="0" />
          </radialGradient>
          <radialGradient
            id="paint15_radial_129_130"
            cx="0"
            cy="0"
            r="1"
            gradientUnits="userSpaceOnUse"
            gradientTransform="translate(43.9705 18.8454) rotate(68.199) scale(5.63759 3.82057)"
          >
            <stop stop-color="#EC6686" />
            <stop offset="0.26" stop-color="#EC6686" />
            <stop offset="1" stop-color="#EC6686" stop-opacity="0" />
          </radialGradient>
          <radialGradient
            id="paint16_radial_129_130"
            cx="0"
            cy="0"
            r="1"
            gradientUnits="userSpaceOnUse"
            gradientTransform="translate(27.3821 15.9628) rotate(135) scale(3.14062)"
          >
            <stop stop-color="#EC6686" />
            <stop offset="1" stop-color="#EC6686" stop-opacity="0" />
          </radialGradient>
          <radialGradient
            id="paint17_radial_129_130"
            cx="0"
            cy="0"
            r="1"
            gradientUnits="userSpaceOnUse"
            gradientTransform="translate(51.0268 18.0565) rotate(135) scale(4.1875 2.09375)"
          >
            <stop stop-color="#EC6686" />
            <stop offset="1" stop-color="#EC6686" stop-opacity="0" />
          </radialGradient>
        </defs>
      </svg>