<svg
        width="67"
        height="67"
        viewBox="0 0 67 67"
        fill="none"
        xmlns="http://www.w3.org/2000/svg"
      >
        <path
          d="M33.4979 62.8083C53.041 62.8083 62.8083 49.6847 62.8083 33.4958C62.8083 17.3111 53.041 4.1875 33.4958 4.1875C13.9548 4.1875 4.1875 17.3111 4.1875 33.4979C4.1875 49.6847 13.9528 62.8083 33.4979 62.8083Z"
          fill="url(#paint0_radial_129_57)"
        />
        <path
          d="M33.4979 62.8083C53.041 62.8083 62.8083 49.6847 62.8083 33.4958C62.8083 17.3111 53.041 4.1875 33.4958 4.1875C13.9548 4.1875 4.1875 17.3111 4.1875 33.4979C4.1875 49.6847 13.9528 62.8083 33.4979 62.8083Z"
          fill="url(#paint1_radial_129_57)"
        />
        <path
          d="M33.4979 62.8083C53.041 62.8083 62.8083 49.6847 62.8083 33.4958C62.8083 17.3111 53.041 4.1875 33.4958 4.1875C13.9548 4.1875 4.1875 17.3111 4.1875 33.4979C4.1875 49.6847 13.9528 62.8083 33.4979 62.8083Z"
          fill="url(#paint2_radial_129_57)"
        />
        <path
          d="M33.4979 62.8083C53.041 62.8083 62.8083 49.6847 62.8083 33.4958C62.8083 17.3111 53.041 4.1875 33.4958 4.1875C13.9548 4.1875 4.1875 17.3111 4.1875 33.4979C4.1875 49.6847 13.9528 62.8083 33.4979 62.8083Z"
          fill="url(#paint3_radial_129_57)"
          fill-opacity="0.6"
        />
        <path
          d="M33.4979 62.8083C53.041 62.8083 62.8083 49.6847 62.8083 33.4958C62.8083 17.3111 53.041 4.1875 33.4958 4.1875C13.9548 4.1875 4.1875 17.3111 4.1875 33.4979C4.1875 49.6847 13.9528 62.8083 33.4979 62.8083Z"
          fill="url(#paint4_radial_129_57)"
        />
        <path
          d="M33.4979 62.8083C53.041 62.8083 62.8083 49.6847 62.8083 33.4958C62.8083 17.3111 53.041 4.1875 33.4958 4.1875C13.9548 4.1875 4.1875 17.3111 4.1875 33.4979C4.1875 49.6847 13.9528 62.8083 33.4979 62.8083Z"
          fill="url(#paint5_radial_129_57)"
        />
        <path
          d="M33.4979 62.8083C53.041 62.8083 62.8083 49.6847 62.8083 33.4958C62.8083 17.3111 53.041 4.1875 33.4958 4.1875C13.9548 4.1875 4.1875 17.3111 4.1875 33.4979C4.1875 49.6847 13.9528 62.8083 33.4979 62.8083Z"
          fill="url(#paint6_radial_129_57)"
        />
        <path
          d="M33.4979 62.8083C53.041 62.8083 62.8083 49.6847 62.8083 33.4958C62.8083 17.3111 53.041 4.1875 33.4958 4.1875C13.9548 4.1875 4.1875 17.3111 4.1875 33.4979C4.1875 49.6847 13.9528 62.8083 33.4979 62.8083Z"
          fill="url(#paint7_radial_129_57)"
        />
        <path
          d="M18.8438 37.6875C24.6255 37.6875 29.3125 33.0005 29.3125 27.2188C29.3125 21.437 24.6255 16.75 18.8438 16.75C13.062 16.75 8.375 21.437 8.375 27.2188C8.375 33.0005 13.062 37.6875 18.8438 37.6875Z"
          fill="url(#paint8_radial_129_57)"
        />
        <path
          d="M40.8281 37.6875C46.0317 37.6875 50.25 33.4692 50.25 28.2656C50.25 23.0621 46.0317 18.8438 40.8281 18.8438C35.6246 18.8438 31.4062 23.0621 31.4062 28.2656C31.4062 33.4692 35.6246 37.6875 40.8281 37.6875Z"
          fill="url(#paint9_radial_129_57)"
        />
        <path
          d="M21.9844 33.5C24.4832 33.5 26.8797 32.5073 28.6466 30.7404C30.4136 28.9735 31.4062 26.577 31.4062 24.0781C31.4062 21.5793 30.4136 19.1828 28.6466 17.4159C26.8797 15.6489 24.4832 14.6563 21.9844 14.6562C19.4855 14.6563 17.089 15.6489 15.3221 17.4159C13.5552 19.1828 12.5625 21.5793 12.5625 24.0781C12.5625 26.577 13.5552 28.9735 15.3221 30.7404C17.089 32.5073 19.4855 33.5 21.9844 33.5ZM45.0156 33.5C47.5145 33.5 49.911 32.5073 51.6779 30.7404C53.4448 28.9735 54.4375 26.577 54.4375 24.0781C54.4375 21.5793 53.4448 19.1828 51.6779 17.4159C49.911 15.6489 47.5145 14.6563 45.0156 14.6562C42.5168 14.6563 40.1203 15.6489 38.3534 17.4159C36.5864 19.1828 35.5938 21.5793 35.5938 24.0781C35.5938 26.577 36.5864 28.9735 38.3534 30.7404C40.1203 32.5073 42.5168 33.5 45.0156 33.5Z"
          fill="white"
        />
        <path
          d="M23.0312 31.4062C24.6971 31.4062 26.2948 30.7445 27.4728 29.5665C28.6507 28.3886 29.3125 26.7909 29.3125 25.125C29.3125 23.4591 28.6507 21.8614 27.4728 20.6835C26.2948 19.5055 24.6971 18.8438 23.0312 18.8438C21.3654 18.8438 19.7677 19.5055 18.5897 20.6835C17.4118 21.8614 16.75 23.4591 16.75 25.125C16.75 26.7909 17.4118 28.3886 18.5897 29.5665C19.7677 30.7445 21.3654 31.4062 23.0312 31.4062Z"
          fill="url(#paint10_linear_129_57)"
        />
        <path
          d="M43.9688 31.4062C45.6346 31.4062 47.2323 30.7445 48.4103 29.5665C49.5882 28.3886 50.25 26.7909 50.25 25.125C50.25 23.4591 49.5882 21.8614 48.4103 20.6835C47.2323 19.5055 45.6346 18.8438 43.9688 18.8438C42.3029 18.8438 40.7052 19.5055 39.5272 20.6835C38.3493 21.8614 37.6875 23.4591 37.6875 25.125C37.6875 26.7909 38.3493 28.3886 39.5272 29.5665C40.7052 30.7445 42.3029 31.4062 43.9688 31.4062Z"
          fill="url(#paint11_linear_129_57)"
        />
        <path
          d="M24.3294 45.9787C25.264 44.5046 26.4798 43.2291 27.9074 42.2251C29.3351 41.221 30.9466 40.5081 32.6498 40.127C34.3531 39.7459 36.1147 39.7041 37.8341 40.004C39.5535 40.3039 41.197 40.9397 42.6706 41.8749"
          stroke="url(#paint12_radial_129_57)"
          stroke-width="2"
          stroke-linecap="round"
        />
        <defs>
          <radialGradient
            id="paint0_radial_129_57"
            cx="0"
            cy="0"
            r="1"
            gradientUnits="userSpaceOnUse"
            gradientTransform="translate(53.391 18.8429) rotate(132.839) scale(78.5226)"
          >
            <stop stop-color="#FFF478" />
            <stop offset="0.475" stop-color="#FFB02E" />
            <stop offset="1" stop-color="#F70A8D" />
          </radialGradient>
          <radialGradient
            id="paint1_radial_129_57"
            cx="0"
            cy="0"
            r="1"
            gradientUnits="userSpaceOnUse"
            gradientTransform="translate(53.3882 18.8451) rotate(131.878) scale(81.5489)"
          >
            <stop stop-color="#FFF478" />
            <stop offset="0.475" stop-color="#FFB02E" />
            <stop offset="1" stop-color="#F70A8D" />
          </radialGradient>
          <radialGradient
            id="paint2_radial_129_57"
            cx="0"
            cy="0"
            r="1"
            gradientUnits="userSpaceOnUse"
            gradientTransform="translate(33.4986 26.1713) rotate(101.31) scale(37.3663 47.8592)"
          >
            <stop offset="0.788" stop-color="#F59639" stop-opacity="0" />
            <stop offset="0.973" stop-color="#FF7DCE" />
          </radialGradient>
          <radialGradient
            id="paint3_radial_129_57"
            cx="0"
            cy="0"
            r="1"
            gradientUnits="userSpaceOnUse"
            gradientTransform="translate(37.6875 29.3125) rotate(135) scale(85.8693)"
          >
            <stop offset="0.315" stop-opacity="0" />
            <stop offset="1" />
          </radialGradient>
          <radialGradient
            id="paint4_radial_129_57"
            cx="0"
            cy="0"
            r="1"
            gradientUnits="userSpaceOnUse"
            gradientTransform="translate(33.4999 35.5953) rotate(77.692) scale(58.9326)"
          >
            <stop offset="0.508" stop-color="#7D6133" stop-opacity="0" />
            <stop offset="1" stop-color="#715B32" />
          </radialGradient>
          <radialGradient
            id="paint5_radial_129_57"
            cx="0"
            cy="0"
            r="1"
            gradientUnits="userSpaceOnUse"
            gradientTransform="translate(34.5469 34.5469) rotate(55.713) scale(27.8751 20.2054)"
          >
            <stop stop-color="#FFB849" />
            <stop offset="1" stop-color="#FFB847" stop-opacity="0" />
          </radialGradient>
          <radialGradient
            id="paint6_radial_129_57"
            cx="0"
            cy="0"
            r="1"
            gradientUnits="userSpaceOnUse"
            gradientTransform="translate(42.9219 37.6875) rotate(9.86582) scale(24.4395)"
          >
            <stop stop-color="#FFA64B" />
            <stop offset="0.9" stop-color="#FFAE46" stop-opacity="0" />
          </radialGradient>
          <radialGradient
            id="paint7_radial_129_57"
            cx="0"
            cy="0"
            r="1"
            gradientUnits="userSpaceOnUse"
            gradientTransform="translate(36.6407 31.4068) rotate(43.971) scale(123.642)"
          >
            <stop offset="0.185" stop-opacity="0" />
            <stop offset="1" stop-opacity="0.4" />
          </radialGradient>
          <radialGradient
            id="paint8_radial_129_57"
            cx="0"
            cy="0"
            r="1"
            gradientUnits="userSpaceOnUse"
            gradientTransform="translate(26.9845 19.0773) rotate(135) scale(20.3981 10.5574)"
          >
            <stop stop-color="#392108" />
            <stop offset="1" stop-color="#C87928" stop-opacity="0" />
          </radialGradient>
          <radialGradient
            id="paint9_radial_129_57"
            cx="0"
            cy="0"
            r="1"
            gradientUnits="userSpaceOnUse"
            gradientTransform="translate(48.1562 20.9375) rotate(135) scale(17.0258 9.61135)"
          >
            <stop stop-color="#392108" />
            <stop offset="1" stop-color="#C87928" stop-opacity="0" />
          </radialGradient>
          <linearGradient
            id="paint10_linear_129_57"
            x1="46.3849"
            y1="18.8437"
            x2="43.9687"
            y2="31.4062"
            gradientUnits="userSpaceOnUse"
          >
            <stop stop-color="#553B3E" />
            <stop offset="1" stop-color="#3D2432" />
          </linearGradient>
          <linearGradient
            id="paint11_linear_129_57"
            x1="46.3849"
            y1="18.8437"
            x2="43.9687"
            y2="31.4062"
            gradientUnits="userSpaceOnUse"
          >
            <stop stop-color="#553B3E" />
            <stop offset="1" stop-color="#3D2432" />
          </linearGradient>
          <radialGradient
            id="paint12_radial_129_57"
            cx="0"
            cy="0"
            r="1"
            gradientUnits="userSpaceOnUse"
            gradientTransform="translate(35.5938 53.3905) rotate(-96.009) scale(20.0005 19.734)"
          >
            <stop offset="0.518" stop-color="#4E2553" />
            <stop offset="0.703" stop-color="#5B4852" />
            <stop offset="1" stop-color="#4E2553" />
          </radialGradient>
        </defs>
      </svg>