<svg
        width="67"
        height="67"
        viewBox="0 0 67 67"
        fill="none"
        xmlns="http://www.w3.org/2000/svg"
      >
        <path
          d="M33.4979 62.8083C53.041 62.8083 62.8083 49.6847 62.8083 33.4958C62.8083 17.3111 53.041 4.1875 33.4958 4.1875C13.9548 4.1875 4.1875 17.3111 4.1875 33.4979C4.1875 49.6847 13.9528 62.8083 33.4979 62.8083Z"
          fill="url(#paint0_radial_129_73)"
        />
        <path
          d="M33.4979 62.8083C53.041 62.8083 62.8083 49.6847 62.8083 33.4958C62.8083 17.3111 53.041 4.1875 33.4958 4.1875C13.9548 4.1875 4.1875 17.3111 4.1875 33.4979C4.1875 49.6847 13.9528 62.8083 33.4979 62.8083Z"
          fill="url(#paint1_radial_129_73)"
        />
        <path
          d="M33.4979 62.8083C53.041 62.8083 62.8083 49.6847 62.8083 33.4958C62.8083 17.3111 53.041 4.1875 33.4958 4.1875C13.9548 4.1875 4.1875 17.3111 4.1875 33.4979C4.1875 49.6847 13.9528 62.8083 33.4979 62.8083Z"
          fill="url(#paint2_radial_129_73)"
        />
        <path
          d="M33.4979 62.8083C53.041 62.8083 62.8083 49.6847 62.8083 33.4958C62.8083 17.3111 53.041 4.1875 33.4958 4.1875C13.9548 4.1875 4.1875 17.3111 4.1875 33.4979C4.1875 49.6847 13.9528 62.8083 33.4979 62.8083Z"
          fill="url(#paint3_radial_129_73)"
          fill-opacity="0.6"
        />
        <path
          d="M33.4979 62.8083C53.041 62.8083 62.8083 49.6847 62.8083 33.4958C62.8083 17.3111 53.041 4.1875 33.4958 4.1875C13.9548 4.1875 4.1875 17.3111 4.1875 33.4979C4.1875 49.6847 13.9528 62.8083 33.4979 62.8083Z"
          fill="url(#paint4_radial_129_73)"
        />
        <path
          d="M33.4979 62.8083C53.041 62.8083 62.8083 49.6847 62.8083 33.4958C62.8083 17.3111 53.041 4.1875 33.4958 4.1875C13.9548 4.1875 4.1875 17.3111 4.1875 33.4979C4.1875 49.6847 13.9528 62.8083 33.4979 62.8083Z"
          fill="url(#paint5_radial_129_73)"
        />
        <path
          d="M33.4979 62.8083C53.041 62.8083 62.8083 49.6847 62.8083 33.4958C62.8083 17.3111 53.041 4.1875 33.4958 4.1875C13.9548 4.1875 4.1875 17.3111 4.1875 33.4979C4.1875 49.6847 13.9528 62.8083 33.4979 62.8083Z"
          fill="url(#paint6_radial_129_73)"
        />
        <path
          d="M33.4979 62.8083C53.041 62.8083 62.8083 49.6847 62.8083 33.4958C62.8083 17.3111 53.041 4.1875 33.4958 4.1875C13.9548 4.1875 4.1875 17.3111 4.1875 33.4979C4.1875 49.6847 13.9528 62.8083 33.4979 62.8083Z"
          fill="url(#paint7_radial_129_73)"
        />
        <g filter="url(#filter0_f_129_73)">
          <path
            fill-rule="evenodd"
            clip-rule="evenodd"
            d="M25.1145 30.6252C26.4717 29.5422 27.4586 28.0641 27.9389 26.3956C28.4191 24.727 28.3689 22.9505 27.7952 21.3117C27.2215 19.6729 26.1526 18.253 24.7364 17.2484C23.3203 16.2438 21.6269 15.7041 19.8906 15.7041C18.1543 15.7041 16.461 16.2438 15.0448 17.2484C13.6287 18.253 12.5598 19.6729 11.9861 21.3117C11.4123 22.9505 11.3621 24.727 11.8424 26.3956C12.3226 28.0641 13.3096 29.5422 14.6667 30.6252C16.1617 30.1227 18.0733 29.6621 19.8906 29.6621C21.708 29.6621 23.6175 30.1227 25.1145 30.6252Z"
            fill="#B3671F"
          />
        </g>
        <g filter="url(#filter1_f_129_73)">
          <path
            fill-rule="evenodd"
            clip-rule="evenodd"
            d="M49.1927 30.1018C50.5498 29.0188 51.5368 27.5407 52.017 25.8722C52.4973 24.2036 52.447 22.427 51.8733 20.7883C51.2996 19.1495 50.2307 17.7296 48.8146 16.7249C47.3984 15.7203 45.705 15.1807 43.9688 15.1807C42.2325 15.1807 40.5391 15.7203 39.1229 16.7249C37.7068 17.7296 36.6379 19.1495 36.0642 20.7883C35.4905 22.427 35.4402 24.2036 35.9205 25.8722C36.4007 27.5407 37.3877 29.0188 38.7448 30.1018C40.2398 29.5993 42.1514 29.1386 43.9688 29.1386C45.7861 29.1386 47.6956 29.5993 49.1927 30.1018Z"
            fill="#9F5915"
          />
        </g>
        <path
          fill-rule="evenodd"
          clip-rule="evenodd"
          d="M31.4062 21.9844C31.4075 23.3999 31.0891 24.7975 30.475 26.0728C29.8609 27.3482 28.9668 28.4685 27.8594 29.3502C26.1782 28.7849 24.0279 28.2656 21.9844 28.2656C19.9388 28.2656 17.7906 28.7849 16.1093 29.3502C14.863 28.3562 13.8894 27.0622 13.2794 25.5893C12.6695 24.1165 12.4432 22.513 12.6218 20.9289C12.8004 19.3448 13.378 17.8319 14.3006 16.5318C15.2231 15.2317 16.4604 14.187 17.8967 13.4954C19.333 12.8038 20.9213 12.4879 22.513 12.5773C24.1046 12.6668 25.6475 13.1586 26.9973 14.0068C28.3471 14.8549 29.4596 16.0317 30.2307 17.4269C31.0018 18.8222 31.4063 20.3902 31.4062 21.9844ZM54.4375 21.9844C54.4387 23.3999 54.1204 24.7975 53.5063 26.0728C52.8922 27.3482 51.9981 28.4685 50.8907 29.3502C49.2094 28.7849 47.0591 28.2656 45.0156 28.2656C42.97 28.2656 40.8218 28.7849 39.1406 29.3502C37.8943 28.3562 36.9206 27.0622 36.3107 25.5893C35.7007 24.1165 35.4745 22.513 35.6531 20.9289C35.8316 19.3448 36.4092 17.8319 37.3318 16.5318C38.2544 15.2317 39.4917 14.187 40.928 13.4954C42.3643 12.8038 43.9526 12.4879 45.5442 12.5773C47.1358 12.6668 48.6788 13.1586 50.0285 14.0068C51.3783 14.8549 52.4908 16.0317 53.2619 17.4269C54.033 18.8222 54.4375 20.3902 54.4375 21.9844Z"
          fill="white"
        />
        <path
          fill-rule="evenodd"
          clip-rule="evenodd"
          d="M29.3125 21.9844C29.3125 24.9868 27.7631 27.5684 25.5479 28.7011C24.3795 28.4266 23.1845 28.2806 21.9844 28.2656C21.3311 28.2656 20.6653 28.318 20.0079 28.4101C18.0691 27.1643 16.75 24.7523 16.75 21.9844C16.75 17.9372 19.5619 14.6562 23.0312 14.6562C26.5006 14.6562 29.3125 17.9372 29.3125 21.9844ZM50.25 21.9844C50.25 24.7523 48.933 27.1643 46.9921 28.4101C46.3374 28.3169 45.677 28.2686 45.0156 28.2656C43.8243 28.2656 42.5994 28.4415 41.4521 28.7011C39.2348 27.5684 37.6875 24.9868 37.6875 21.9844C37.6875 17.9372 40.4994 14.6562 43.9688 14.6562C47.4381 14.6562 50.25 17.9372 50.25 21.9844Z"
          fill="url(#paint8_linear_129_73)"
        />
        <path
          d="M33.5 52.3438C14.6562 52.3438 14.6562 33.5 14.6562 33.5H52.3438C52.3438 33.5 52.3438 52.3438 33.5 52.3438Z"
          fill="url(#paint9_radial_129_73)"
        />
        <path
          d="M16.75 34.5469V33.5H50.25V34.5469C50.25 35.1022 50.0294 35.6347 49.6368 36.0274C49.2441 36.42 48.7115 36.6406 48.1562 36.6406H18.8438C18.2885 36.6406 17.7559 36.42 17.3632 36.0274C16.9706 35.6347 16.75 35.1022 16.75 34.5469Z"
          fill="url(#paint10_linear_129_73)"
        />
        <defs>
          <filter
            id="filter0_f_129_73"
            x="9.51562"
            y="13.7041"
            width="20.75"
            height="18.9211"
            filterUnits="userSpaceOnUse"
            color-interpolation-filters="sRGB"
          >
            <feFlood flood-opacity="0" result="BackgroundImageFix" />
            <feBlend
              mode="normal"
              in="SourceGraphic"
              in2="BackgroundImageFix"
              result="shape"
            />
            <feGaussianBlur
              stdDeviation="1"
              result="effect1_foregroundBlur_129_73"
            />
          </filter>
          <filter
            id="filter1_f_129_73"
            x="33.5938"
            y="13.1807"
            width="20.75"
            height="18.9211"
            filterUnits="userSpaceOnUse"
            color-interpolation-filters="sRGB"
          >
            <feFlood flood-opacity="0" result="BackgroundImageFix" />
            <feBlend
              mode="normal"
              in="SourceGraphic"
              in2="BackgroundImageFix"
              result="shape"
            />
            <feGaussianBlur
              stdDeviation="1"
              result="effect1_foregroundBlur_129_73"
            />
          </filter>
          <radialGradient
            id="paint0_radial_129_73"
            cx="0"
            cy="0"
            r="1"
            gradientUnits="userSpaceOnUse"
            gradientTransform="translate(53.391 18.8429) rotate(132.839) scale(78.5226)"
          >
            <stop stop-color="#FFF478" />
            <stop offset="0.475" stop-color="#FFB02E" />
            <stop offset="1" stop-color="#F70A8D" />
          </radialGradient>
          <radialGradient
            id="paint1_radial_129_73"
            cx="0"
            cy="0"
            r="1"
            gradientUnits="userSpaceOnUse"
            gradientTransform="translate(53.3882 18.8451) rotate(131.878) scale(81.5489)"
          >
            <stop stop-color="#FFF478" />
            <stop offset="0.475" stop-color="#FFB02E" />
            <stop offset="1" stop-color="#F70A8D" />
          </radialGradient>
          <radialGradient
            id="paint2_radial_129_73"
            cx="0"
            cy="0"
            r="1"
            gradientUnits="userSpaceOnUse"
            gradientTransform="translate(33.4986 26.1713) rotate(101.31) scale(37.3663 47.8592)"
          >
            <stop offset="0.788" stop-color="#F59639" stop-opacity="0" />
            <stop offset="0.973" stop-color="#FF7DCE" />
          </radialGradient>
          <radialGradient
            id="paint3_radial_129_73"
            cx="0"
            cy="0"
            r="1"
            gradientUnits="userSpaceOnUse"
            gradientTransform="translate(37.6875 29.3125) rotate(135) scale(85.8693)"
          >
            <stop offset="0.315" stop-opacity="0" />
            <stop offset="1" />
          </radialGradient>
          <radialGradient
            id="paint4_radial_129_73"
            cx="0"
            cy="0"
            r="1"
            gradientUnits="userSpaceOnUse"
            gradientTransform="translate(33.4999 35.5953) rotate(77.692) scale(58.9326)"
          >
            <stop offset="0.508" stop-color="#7D6133" stop-opacity="0" />
            <stop offset="1" stop-color="#715B32" />
          </radialGradient>
          <radialGradient
            id="paint5_radial_129_73"
            cx="0"
            cy="0"
            r="1"
            gradientUnits="userSpaceOnUse"
            gradientTransform="translate(34.5469 34.5469) rotate(55.713) scale(27.8751 20.2054)"
          >
            <stop stop-color="#FFB849" />
            <stop offset="1" stop-color="#FFB847" stop-opacity="0" />
          </radialGradient>
          <radialGradient
            id="paint6_radial_129_73"
            cx="0"
            cy="0"
            r="1"
            gradientUnits="userSpaceOnUse"
            gradientTransform="translate(42.9219 37.6875) rotate(9.86582) scale(24.4395)"
          >
            <stop stop-color="#FFA64B" />
            <stop offset="0.9" stop-color="#FFAE46" stop-opacity="0" />
          </radialGradient>
          <radialGradient
            id="paint7_radial_129_73"
            cx="0"
            cy="0"
            r="1"
            gradientUnits="userSpaceOnUse"
            gradientTransform="translate(36.6407 31.4068) rotate(43.971) scale(123.642)"
          >
            <stop offset="0.185" stop-opacity="0" />
            <stop offset="1" stop-opacity="0.4" />
          </radialGradient>
          <linearGradient
            id="paint8_linear_129_73"
            x1="46.3849"
            y1="14.6562"
            x2="43.3909"
            y2="28.5755"
            gradientUnits="userSpaceOnUse"
          >
            <stop stop-color="#553B3E" />
            <stop offset="1" stop-color="#3D2432" />
          </linearGradient>
          <radialGradient
            id="paint9_radial_129_73"
            cx="0"
            cy="0"
            r="1"
            gradientUnits="userSpaceOnUse"
            gradientTransform="translate(33.5 56.5313) rotate(-90) scale(23.0313 46.0625)"
          >
            <stop stop-color="#F70A8D" />
            <stop offset="1" stop-color="#89029C" />
          </radialGradient>
          <linearGradient
            id="paint10_linear_129_73"
            x1="33.5"
            y1="33.5"
            x2="33.5"
            y2="36.6406"
            gradientUnits="userSpaceOnUse"
          >
            <stop stop-color="#ECCDFF" />
            <stop offset="1" stop-color="white" />
          </linearGradient>
        </defs>
      </svg>